<svg version="1.1" xmlns="http://www.w3.org/2000/svg" xmlns:xlink="http://www.w3.org/1999/xlink" width="28" height="25"><defs/><g><path fill="rgb(0,0,0)" stroke="none" paint-order="stroke fill markers" fill-rule="evenodd" d=" M 6.911784648895264 11.143024444580078 C 11.776656150817871 11.143024444580078 21.463603019714355 11.143024444580078 21.463603019714355 11.143024444580078 C 22.99240255355835 11.143024444580078 24.231761932373047 12.357916116714478 24.231761932373047 13.856695175170898 C 24.231761932373047 13.856695175170898 22.999972343444824 17.99992847442627 22.999972343444824 17.99992847442627 C 22.108465671539307 19.674760580062866 21.608323097229004 21.285439014434814 20.07964277267456 21.285439014434814 C 20.07964277267456 21.285439014434814 12.543171882629395 21.285439014434814 12.543171882629395 21.285439014434814 C 11.014431953430176 21.285439014434814 10.170668601989746 20.14940905570984 9.775012969970703 18.57158350944519 C 9.775012969970703 18.57158350944519 9.356230735778809 17.215339422225952 7.200569152832031 8.125325918197632 C 6.819397449493408 6.518047332763672 6.598025798797607 4.671375036239624 5.819350719451904 3.7054853439331055 C 3.660947322845459 1.0303955078125 1.0865631103515625 2.0002024173736572 1.0865631103515625 2.0002024173736572 C 1.0865631103515625 0.5009059906005859 4.896015167236328 11.143024444580078 6.911784648895264 11.143024444580078"/></g></svg>